<?xml version="1.0" standalone="no"?>
<!DOCTYPE svg PUBLIC "-//W3C//DTD SVG 20010904//EN"
 "http://www.w3.org/TR/2001/REC-SVG-20010904/DTD/svg10.dtd">
<svg version="1.0" xmlns="http://www.w3.org/2000/svg"
 width="4500.000000pt" height="4130.000000pt" viewBox="0 0 4500.000000 4130.000000"
 preserveAspectRatio="xMidYMid meet">

<g transform="translate(0.000000,4130.000000) scale(0.100000,-0.100000)"
fill="#000000" stroke="none">
<path d="M9923 29515 c-202 -195 -379 -370 -393 -389 -14 -19 -28 -32 -32 -30
-4 2 -9 0 -12 -5 -8 -12 23 -8 32 5 4 5 16 16 26 24 18 14 19 14 6 -9 -11 -21
-10 -23 5 -17 13 5 16 2 11 -10 -5 -12 -1 -14 15 -9 15 5 19 4 15 -4 -5 -7 4
-11 24 -11 17 0 40 -4 50 -10 10 -5 38 -12 61 -15 73 -8 186 -24 211 -29 39
-9 178 -18 263 -18 44 0 114 -4 156 -9 54 -7 114 -5 214 5 103 11 141 12 147
4 4 -8 10 -9 20 -1 7 6 45 13 83 17 39 3 95 9 125 13 67 9 689 10 931 1 97 -3
191 -10 210 -16 47 -14 139 -30 229 -38 41 -4 78 -11 81 -17 4 -5 40 -12 80
-15 41 -2 76 -8 79 -11 15 -18 57 -32 104 -36 83 -6 127 -16 133 -31 2 -7 22
-15 44 -19 21 -4 39 -10 39 -15 0 -4 15 -11 33 -14 19 -4 58 -18 87 -32 30
-14 69 -28 87 -31 18 -3 33 -11 33 -18 0 -6 24 -22 53 -36 28 -13 58 -30 65
-36 7 -7 17 -13 22 -13 10 0 76 -42 100 -63 27 -24 140 -97 150 -97 5 0 10 -6
10 -14 0 -8 14 -23 30 -33 17 -9 30 -21 30 -24 0 -4 27 -34 60 -67 33 -32 60
-64 60 -70 0 -7 7 -12 15 -12 8 0 15 -3 15 -7 0 -5 15 -24 34 -43 18 -20 36
-45 40 -55 3 -11 19 -34 36 -52 16 -18 30 -39 30 -47 0 -8 6 -19 13 -23 6 -4
27 -38 45 -74 18 -37 41 -75 50 -85 10 -11 30 -57 45 -104 16 -47 34 -94 41
-105 7 -11 16 -33 19 -50 7 -36 55 -202 67 -230 13 -30 36 -171 77 -465 33
-232 16 -925 -33 -1350 -8 -74 -19 -151 -24 -171 -6 -20 -10 -74 -10 -119 0
-82 -18 -210 -30 -220 -7 -5 -22 -116 -22 -160 1 -14 -6 -49 -13 -79 -8 -30
-12 -58 -9 -63 3 -5 1 -14 -4 -21 -5 -7 -12 -37 -16 -67 -4 -30 -9 -66 -11
-80 -3 -14 -6 -40 -8 -58 -2 -18 -7 -35 -11 -39 -3 -3 -6 -31 -6 -62 0 -31 -7
-87 -15 -126 -8 -38 -15 -86 -15 -105 0 -19 -6 -55 -14 -80 -8 -25 -22 -90
-30 -145 -8 -55 -20 -122 -25 -150 -6 -27 -18 -102 -27 -165 -9 -63 -20 -119
-24 -125 -7 -10 -20 -83 -40 -230 -5 -38 -24 -162 -41 -275 -18 -113 -33 -223
-33 -245 -1 -22 -5 -47 -8 -55 -4 -8 -12 -62 -18 -120 -6 -58 -18 -150 -25
-205 -8 -55 -14 -136 -15 -180 0 -43 -5 -82 -10 -85 -6 -4 -10 -17 -10 -31 0
-13 -7 -112 -15 -219 -27 -364 -20 -891 16 -1165 6 -44 15 -118 19 -165 5 -47
16 -107 24 -135 9 -27 16 -64 16 -81 0 -16 4 -34 8 -40 13 -14 32 -87 32 -121
0 -17 6 -36 14 -42 7 -6 19 -38 26 -71 7 -33 15 -58 18 -55 3 3 12 -18 19 -47
8 -29 20 -59 28 -68 8 -9 15 -25 15 -36 0 -10 9 -30 20 -44 11 -14 20 -32 20
-40 0 -9 20 -51 45 -94 25 -44 45 -82 45 -84 0 -3 7 -12 15 -21 9 -9 37 -50
64 -91 27 -41 58 -85 70 -97 11 -12 21 -25 21 -28 0 -3 9 -15 20 -27 11 -12
20 -18 20 -13 0 4 14 -11 30 -33 17 -23 35 -42 40 -42 6 0 10 -5 10 -11 0 -13
83 -99 95 -99 4 0 16 -11 27 -25 11 -14 23 -25 28 -25 5 0 24 -15 43 -32 18
-18 48 -41 66 -50 26 -15 31 -22 26 -39 -7 -20 -5 -21 23 -16 19 4 32 2 35 -6
2 -7 25 -23 51 -35 25 -13 52 -29 58 -35 7 -7 29 -20 48 -29 19 -10 42 -22 50
-27 19 -11 208 -100 235 -111 11 -4 36 -14 55 -21 19 -7 37 -16 40 -19 3 -3
30 -12 60 -19 30 -8 64 -20 76 -28 11 -7 23 -10 27 -7 7 8 77 -18 77 -28 0 -4
-4 -8 -9 -8 -5 0 -20 -17 -32 -37 -13 -21 -26 -40 -30 -43 -3 -3 -15 -21 -25
-40 -11 -19 -37 -62 -58 -95 -22 -33 -45 -73 -53 -90 -14 -31 -34 -66 -43 -75
-3 -3 -16 -30 -30 -60 -13 -30 -30 -62 -36 -70 -7 -8 -16 -28 -20 -45 -4 -16
-18 -51 -31 -76 -13 -26 -23 -52 -23 -58 0 -6 -5 -11 -10 -11 -6 0 -10 -6 -9
-12 1 -7 -1 -22 -5 -33 -5 -11 -19 -48 -32 -83 -13 -34 -24 -69 -24 -78 0 -8
-4 -12 -10 -9 -6 4 -10 -5 -10 -20 0 -15 -7 -51 -16 -81 -16 -58 -52 -219 -59
-269 -2 -16 -10 -66 -17 -110 -23 -150 -12 -740 14 -803 6 -15 10 -48 9 -74
-2 -30 1 -48 8 -48 6 0 11 -17 11 -38 0 -20 9 -54 20 -75 11 -20 20 -46 20
-57 0 -30 23 -114 34 -121 5 -4 9 -15 10 -25 2 -26 48 -124 58 -124 4 0 8 -10
8 -22 0 -45 61 -184 74 -170 4 3 4 -1 1 -10 -4 -9 -2 -19 4 -23 6 -3 11 -17
11 -31 0 -14 6 -24 14 -24 8 0 17 -11 20 -25 3 -13 16 -30 27 -36 16 -8 18
-13 9 -19 -10 -6 -6 -16 14 -42 14 -19 26 -40 26 -46 0 -16 17 -15 23 1 3 6 6
-7 6 -30 1 -24 5 -43 11 -43 5 0 17 -14 25 -31 10 -18 22 -29 30 -26 8 4 15
-5 19 -23 3 -16 15 -39 26 -50 11 -11 20 -27 20 -35 0 -9 7 -18 15 -21 8 -4
15 -11 15 -16 0 -21 57 -88 83 -97 24 -9 31 -20 29 -42 -1 -3 6 -6 13 -6 12 0
12 3 3 15 -10 12 -9 14 7 10 11 -2 19 -9 18 -15 -3 -15 30 -10 35 5 2 7 8 10
12 7 5 -3 11 -1 14 4 13 21 -14 20 -28 -1 -9 -12 -16 -17 -16 -10 0 19 4 27
12 25 7 -3 12 11 10 28 -1 3 5 6 13 6 8 0 12 -4 9 -9 -4 -5 3 -4 14 3 12 7 20
17 19 22 -1 5 6 11 16 12 9 2 15 -1 12 -5 -3 -5 -1 -11 4 -14 5 -4 12 -2 16 4
4 6 11 8 16 5 5 -3 6 1 3 9 -4 11 0 14 15 11 20 -4 20 -3 5 21 -9 13 -15 24
-13 25 31 6 40 6 44 -1 3 -5 -4 -7 -16 -5 -12 2 -19 1 -15 -2 4 -4 18 -8 31
-9 22 -1 22 1 9 21 -12 19 -12 22 1 22 8 0 12 -4 10 -8 -4 -6 11 -6 33 0 1 1
-2 10 -8 21 -6 11 -7 20 -3 19 4 -1 10 0 13 1 19 7 39 7 34 -1 -3 -5 -10 -6
-16 -3 -7 5 -8 2 -3 -6 6 -9 4 -11 -5 -5 -9 6 -11 4 -6 -4 11 -17 49 17 41 36
-2 8 -1 11 5 8 5 -3 14 3 20 14 6 12 18 18 29 16 11 -2 22 3 25 11 3 8 2 12
-3 9 -5 -3 -12 -1 -15 4 -6 10 12 10 29 0 6 -4 22 -6 37 -5 19 1 24 -2 17 -10
-6 -7 1 -21 20 -41 16 -17 35 -41 41 -54 19 -35 130 -169 141 -169 5 0 14 -11
20 -24 6 -13 21 -29 33 -34 12 -6 15 -11 7 -11 -14 -1 26 -45 60 -66 35 -22
139 -109 139 -116 0 -4 10 -11 22 -15 12 -3 26 -10 32 -15 41 -34 106 -79 115
-79 5 0 14 -6 18 -12 9 -14 99 -60 203 -103 36 -15 76 -33 90 -40 14 -7 42
-15 63 -19 21 -4 35 -11 32 -17 -4 -5 6 -9 20 -9 15 0 74 -11 133 -24 59 -14
140 -28 180 -32 39 -3 72 -10 72 -14 0 -4 105 -6 234 -4 217 3 239 5 302 28
38 13 89 27 114 31 44 7 107 26 258 80 40 14 78 22 84 19 6 -4 8 -3 5 3 -8 13
60 56 74 48 5 -4 9 -1 9 4 0 6 7 11 15 11 8 0 15 4 15 10 0 5 3 9 8 8 4 -2 31
13 61 32 30 19 61 40 70 45 60 37 165 117 211 159 130 120 799 759 845 807 28
29 7 13 -45 -37 -161 -152 -315 -259 -502 -349 -937 -449 -2072 -55 -2542 883
-93 185 -162 416 -186 624 -18 152 -8 442 19 580 65 324 236 677 436 896 31
34 54 62 50 62 -16 0 -820 -786 -822 -803 -1 -5 -20 -28 -42 -52 -23 -24 -41
-47 -41 -51 0 -4 -12 -23 -27 -43 -36 -46 -49 -68 -69 -113 -9 -21 -20 -35
-24 -33 -24 15 -27 -292 -6 -455 43 -323 174 -710 323 -959 35 -57 63 -106 63
-108 0 -2 -6 -1 -12 3 -9 5 -8 2 1 -9 8 -10 12 -20 9 -22 -5 -6 -159 178 -226
270 -221 307 -408 726 -491 1100 -73 331 -80 705 -20 1039 72 400 245 823 476
1164 35 51 63 95 63 97 0 2 -53 21 -117 41 -216 67 -542 251 -741 417 -106 89
-285 275 -359 373 -287 385 -449 844 -520 1474 -24 219 -24 861 0 1150 40 470
105 950 232 1725 42 253 92 555 111 670 79 483 145 975 181 1360 22 239 26
946 5 1120 -45 379 -119 656 -246 920 -324 672 -951 1039 -1966 1152 -261 29
-951 26 -1320 -6 -218 -18 -308 -22 -435 -17 -288 12 -523 44 -645 88 -72 26
-91 47 -72 78 7 11 10 20 8 20 -3 0 -170 -160 -373 -355z m2344 -531 c-3 -3
-12 -4 -19 -1 -8 3 -5 6 6 6 11 1 17 -2 13 -5z m3761 -13717 c8 -10 6 -13 -7
-13 -11 0 -17 6 -14 13 3 7 6 13 8 13 1 0 7 -6 13 -13z m-261 -191 c4 -4 3 -6
-4 -4 -6 2 -18 -6 -26 -16 -13 -18 -14 -18 -11 5 1 13 3 25 3 26 2 4 31 -4 38
-11z"/>
<path d="M19010 27883 c-270 -259 -499 -484 -523 -513 -10 -12 -16 -28 -13
-35 3 -10 0 -12 -12 -8 -9 3 -14 3 -10 -2 4 -4 -1 -20 -11 -34 -21 -31 -42
-83 -47 -114 -2 -12 -11 -49 -19 -82 -23 -86 -21 -81 -45 -185 -12 -52 -35
-160 -51 -240 -16 -80 -31 -155 -34 -167 l-5 -23 225 0 c220 0 225 0 225 -21
0 -18 5 -20 42 -17 l41 3 98 450 c212 973 209 957 244 1030 19 39 52 92 75
118 23 26 40 47 38 47 -1 0 -100 -93 -218 -207z"/>
<path d="M19637 27949 c-90 -21 -179 -97 -218 -184 -20 -46 -103 -405 -95
-412 2 -3 199 -47 438 -99 238 -52 775 -169 1193 -260 418 -91 841 -183 940
-204 99 -22 450 -99 780 -172 l600 -133 1315 -5 1315 -5 82 -28 c101 -34 215
-109 283 -185 90 -101 138 -218 167 -412 l8 -54 590 -132 c858 -191 785 -173
785 -194 0 -14 10 -20 41 -25 22 -4 42 -5 43 -3 1 1 24 105 50 230 54 250 54
263 6 358 -39 77 -72 114 -123 139 -23 11 -404 99 -847 196 -443 97 -987 216
-1210 265 -223 49 -900 197 -1505 330 -605 133 -1386 304 -1735 380 -349 76
-1129 247 -1733 379 -603 133 -1105 241 -1115 240 -9 -1 -34 -5 -55 -10z"/>
<path d="M17001 26103 l-132 -128 21 -180 c12 -99 34 -283 49 -410 l28 -230 5
365 c6 396 10 428 66 552 16 35 45 84 65 111 20 26 35 47 34 47 -2 0 -63 -57
-136 -127z"/>
<path d="M17518 26081 c-74 -29 -116 -59 -149 -107 -54 -79 -59 -107 -59 -330
l0 -204 4350 0 c4343 0 4350 0 4350 -20 0 -17 7 -20 50 -20 l50 0 0 209 c0
184 -3 217 -21 276 -27 88 -96 161 -182 193 l-58 22 -4142 0 c-3992 -1 -4144
-2 -4189 -19z"/>
<path d="M28326 25997 c23 -103 8 -176 -451 -2277 -223 -1019 -464 -2135 -461
-2137 10 -10 583 369 791 524 899 670 1440 1354 1566 1982 29 142 35 352 15
476 -33 197 -121 407 -243 578 -74 103 -231 267 -353 369 -180 151 -475 332
-753 463 l-119 55 8 -33z"/>
<path d="M26440 23662 l0 -619 44 -5 c113 -13 241 -110 293 -222 25 -55 28
-72 28 -166 0 -93 -3 -112 -27 -162 -53 -114 -168 -201 -286 -215 l-52 -6 0
-498 c0 -465 1 -498 18 -503 9 -2 63 -15 120 -27 56 -12 102 -26 102 -31 0 -4
-6 -8 -12 -8 -8 0 -6 -5 3 -10 13 -8 54 9 169 68 151 76 153 78 171 124 17 43
592 2638 586 2644 -1 2 -252 57 -557 124 -305 67 -565 123 -577 127 l-23 5 0
-620z m439 -2356 c-10 -9 -149 -76 -149 -71 0 6 131 74 144 75 5 0 7 -2 5 -4z"/>
<path d="M17312 23168 l3 -773 63 -330 c94 -491 147 -677 275 -948 l50 -107
4084 2 c2245 2 4083 2 4083 1 0 0 -15 -11 -32 -23 l-33 -21 35 6 c94 18 193
94 237 183 l28 57 3 1363 2 1362 -4400 0 -4400 0 2 -772z m4913 -191 c4 -24 5
-56 3 -73 l-3 -29 -2161 -3 -2161 -2 -6 67 c-3 38 -3 71 0 75 2 5 976 8 2163
8 l2159 0 6 -43z m2600 -172 c77 -23 150 -67 150 -90 0 -11 -20 -45 -44 -75
-56 -69 -88 -141 -103 -231 -20 -125 23 -274 101 -341 21 -18 40 -41 44 -50
13 -36 -106 -100 -224 -120 -164 -28 -343 55 -439 204 -83 128 -93 297 -26
433 42 85 101 150 177 195 48 28 45 31 -11 12 -29 -9 30 29 75 49 92 41 192
45 300 14z m610 -92 c164 -84 251 -287 199 -464 -31 -105 -96 -183 -197 -237
-47 -24 -62 -27 -157 -27 -94 0 -111 3 -161 27 -69 35 -142 106 -176 172 -32
62 -43 190 -23 263 21 74 83 157 153 204 34 23 55 40 47 37 -8 -3 -26 -9 -40
-13 l-25 -7 24 18 c99 72 245 83 356 27z m-3211 -250 c3 -21 6 -55 6 -75 l0
-38 -1994 0 -1993 0 -6 67 c-3 38 -3 71 0 75 2 5 899 8 1992 8 l1988 0 7 -37z
m1 -496 c4 -24 5 -55 3 -70 l-3 -27 -1889 0 -1889 0 -3 70 -4 70 1889 0 1890
0 6 -43z"/>
<path d="M17946 20632 c12 -4 60 -50 107 -102 112 -126 255 -252 402 -357 340
-240 788 -425 1180 -487 330 -52 1075 -57 1655 -11 1256 100 2565 399 3869
885 106 39 200 70 209 68 31 -7 -503 -207 -876 -329 -73 -24 -129 -45 -124
-47 20 -6 1067 362 1091 384 2 2 -1692 4 -3765 3 -2073 -1 -3759 -4 -3748 -7z"/>
<path d="M24260 20225 c-19 -7 -28 -13 -20 -13 8 0 31 6 50 13 19 7 28 13 20
13 -8 0 -31 -6 -50 -13z"/>
<path d="M24145 20190 c-13 -5 -14 -9 -5 -9 8 0 24 4 35 9 13 5 14 9 5 9 -8 0
-24 -4 -35 -9z"/>
<path d="M24038 20153 c7 -3 16 -2 19 1 4 3 -2 6 -13 5 -11 0 -14 -3 -6 -6z"/>
<path d="M23968 20133 c7 -3 16 -2 19 1 4 3 -2 6 -13 5 -11 0 -14 -3 -6 -6z"/>
<path d="M23898 20113 c7 -3 16 -2 19 1 4 3 -2 6 -13 5 -11 0 -14 -3 -6 -6z"/>
<path d="M29520 20065 c-24 -25 -42 -45 -39 -45 3 0 25 20 49 45 24 25 42 45
39 45 -3 0 -25 -20 -49 -45z"/>
<path d="M29418 19976 c-165 -152 -543 -406 -835 -562 -51 -27 -91 -54 -89
-60 3 -7 26 -41 52 -77 50 -70 46 -69 99 -19 13 12 27 22 30 22 13 0 134 103
269 230 176 166 526 502 526 506 0 7 -4 4 -52 -40z"/>
<path d="M26205 19934 c-503 -53 -913 -199 -1305 -465 -242 -163 -444 -357
-643 -617 -7 -9 -6 -11 7 -6 9 3 16 10 16 16 0 5 6 6 13 2 6 -4 9 -4 5 1 -8 9
56 55 77 55 8 0 15 3 15 8 0 4 18 16 40 26 22 10 37 22 35 26 -2 4 1 7 8 7 7
0 45 17 86 37 41 20 78 36 82 36 4 0 41 16 83 35 41 19 119 49 173 66 54 17
112 37 128 44 17 7 66 20 110 29 149 29 190 37 223 47 17 6 42 7 53 4 14 -5
25 -2 30 6 7 11 39 13 144 12 75 -2 134 1 131 6 -11 17 80 21 223 11 169 -12
221 -19 221 -31 0 -5 26 -9 58 -10 31 0 80 -5 107 -10 28 -6 61 -10 75 -11 14
0 30 -3 35 -8 6 -4 26 -11 45 -15 19 -4 40 -12 47 -17 6 -5 17 -8 25 -7 28 3
68 -1 68 -8 0 -5 -13 -8 -29 -8 -16 0 -27 4 -23 9 3 5 0 6 -7 2 -20 -12 -1
-26 26 -20 18 5 24 3 19 -4 -4 -6 1 -10 13 -9 11 0 17 5 15 9 -3 4 0 8 5 8 6
0 11 -4 11 -8 0 -5 7 -9 15 -9 8 0 15 5 15 11 0 5 6 2 13 -7 7 -10 31 -18 62
-21 28 -2 57 -6 65 -10 8 -3 53 -15 100 -26 87 -22 276 -93 365 -137 43 -22
159 -91 239 -143 163 -106 372 -318 499 -507 62 -92 151 -256 189 -348 23 -55
78 -226 78 -243 0 -7 4 -10 10 -7 5 3 7 0 4 -8 -2 -7 0 -34 6 -58 6 -24 12
-49 12 -56 1 -9 7 -9 20 -2 18 9 18 8 8 -10 -17 -34 -2 -24 20 12 20 33 28 21
10 -14 -21 -38 -1 -18 24 26 15 25 29 45 31 45 6 0 -15 -48 -33 -77 -8 -13
-12 -23 -9 -23 4 0 25 32 47 70 47 81 62 93 25 20 -36 -72 -22 -62 20 15 47
84 66 95 25 16 -43 -85 -30 -76 19 14 23 41 44 75 46 75 5 0 -10 -42 -25 -71
-6 -10 -8 -19 -6 -19 3 0 17 21 30 48 13 26 32 56 40 67 15 19 16 18 5 -10 -5
-16 -15 -35 -21 -42 -6 -8 -9 -15 -6 -18 2 -2 21 25 41 60 41 71 59 88 27 25
-36 -70 -21 -57 26 23 24 42 47 77 49 77 3 0 -8 -27 -25 -60 -43 -85 -28 -74
21 15 44 80 65 97 29 23 -28 -59 3 -19 36 45 14 27 28 47 30 44 3 -3 -6 -28
-20 -56 -40 -77 -23 -61 24 24 47 85 75 113 36 36 -40 -77 -23 -61 24 24 23
41 43 75 45 75 5 0 -10 -43 -25 -71 -6 -10 -9 -19 -6 -19 2 0 21 29 41 65 20
36 38 65 41 65 3 0 0 -9 -6 -19 -18 -34 -30 -72 -22 -67 5 3 16 23 26 44 l18
39 -37 99 c-50 133 -165 356 -258 497 -383 580 -992 999 -1674 1152 -204 45
-308 56 -553 60 -129 2 -253 1 -275 -1z"/>
<path d="M18215 19459 c-588 -54 -1126 -310 -1534 -728 -100 -102 -247 -284
-255 -314 l-5 -22 17 21 c10 11 24 18 32 16 8 -3 12 -1 8 3 -7 7 216 125 237
125 6 0 35 11 63 25 29 14 56 25 61 25 5 0 31 11 58 24 26 13 79 31 117 41 38
9 80 21 94 26 13 5 52 12 85 15 34 3 66 10 72 15 5 5 31 9 58 9 27 0 77 7 111
16 37 10 86 14 125 12 36 -2 59 -2 53 0 -7 2 -12 8 -12 13 0 6 5 7 12 3 12 -8
53 -7 93 1 11 2 26 4 33 4 6 1 12 6 12 12 0 5 -5 7 -12 3 -7 -5 -8 -3 -3 5 5
9 11 9 17 3 7 -7 24 -5 52 4 71 26 267 71 366 85 131 18 410 16 535 -5 512
-85 956 -349 1251 -746 256 -344 384 -739 384 -1182 0 -224 -41 -463 -114
-662 -14 -38 -23 -73 -20 -78 3 -4 0 -8 -6 -8 -6 0 -8 -4 -5 -10 3 -5 1 -10
-5 -10 -6 0 -9 -4 -5 -9 3 -5 1 -12 -5 -16 -5 -3 -15 -16 -22 -28 -9 -19 -9
-20 3 -10 11 9 14 7 15 -14 1 -13 -1 -22 -4 -19 -3 3 -11 -6 -19 -20 -15 -30
-18 -47 -3 -24 6 10 9 5 8 -18 -1 -26 -4 -30 -15 -21 -11 9 -12 8 -7 -5 3 -9
9 -16 13 -16 3 0 6 -13 6 -29 0 -17 -5 -27 -11 -24 -7 3 -10 -5 -7 -20 3 -13
-2 -48 -11 -77 -9 -30 -16 -70 -16 -91 0 -21 -7 -44 -15 -53 -8 -8 -15 -30
-15 -49 0 -20 -3 -37 -7 -39 -10 -4 -73 -197 -73 -221 0 -9 -4 -17 -8 -17 -9
0 -52 -91 -67 -140 -4 -14 -19 -42 -32 -63 -14 -22 -22 -45 -19 -52 2 -7 -9
-25 -24 -40 -16 -16 -27 -32 -24 -36 5 -9 -41 -61 -48 -54 -2 3 -5 -1 -5 -9 0
-13 3 -13 21 -1 12 8 174 160 361 337 247 234 347 335 363 368 21 41 21 43 3
20 -28 -35 -26 -18 3 29 14 21 52 88 84 147 33 60 73 134 91 165 58 105 129
352 168 584 23 138 26 560 5 700 -58 383 -183 717 -386 1025 -390 592 -1012
983 -1728 1085 -132 19 -415 26 -543 14z"/>
<path d="M17634 18754 c-18 -14 -18 -14 6 -3 31 14 36 19 24 19 -6 0 -19 -7
-30 -16z"/>
<path d="M24890 18403 c-395 -378 -630 -613 -630 -629 0 -6 -49 -70 -100 -131
-6 -7 -7 -13 -3 -13 4 0 3 -4 -4 -8 -17 -11 -126 -206 -157 -282 -15 -36 -31
-74 -36 -85 -25 -53 -75 -218 -87 -285 -2 -14 -9 -80 -16 -147 -7 -67 -14
-124 -17 -127 -3 -3 -5 -37 -4 -76 2 -63 0 -69 -13 -53 -10 14 -10 10 2 -15 9
-18 13 -37 10 -42 -3 -6 -3 -10 2 -10 4 0 9 -15 10 -33 2 -51 88 -278 161
-427 37 -74 108 -197 159 -274 51 -76 93 -141 93 -143 0 -2 -6 -1 -12 3 -7 4
-4 -2 6 -14 11 -12 15 -22 9 -22 -15 0 -198 208 -290 331 -150 199 -285 450
-381 709 -188 504 -228 1120 -104 1609 l17 67 -437 -4 c-568 -6 -1296 18
-1803 58 -65 5 -120 8 -122 6 -2 -2 8 -45 21 -97 47 -178 86 -430 86 -548 0
-35 5 -63 13 -69 31 -25 918 -31 1480 -10 79 3 74 22 37 -137 -12 -49 -25
-124 -30 -166 -5 -41 -14 -89 -21 -105 -17 -43 -20 -402 -3 -569 20 -213 61
-412 123 -605 16 -47 36 -111 46 -142 10 -32 22 -58 27 -58 4 0 11 -18 14 -40
4 -22 10 -40 14 -40 4 0 13 -18 20 -40 7 -22 17 -40 22 -40 4 0 8 -6 8 -14 0
-7 9 -25 20 -39 12 -15 20 -29 19 -32 -1 -4 20 -45 47 -91 27 -47 59 -104 72
-127 13 -23 32 -51 43 -63 10 -11 19 -25 19 -32 0 -6 6 -15 13 -19 6 -4 20
-23 30 -41 11 -18 33 -48 50 -67 137 -145 154 -160 182 -165 17 -3 29 -11 27
-19 -1 -7 2 -10 8 -6 7 4 7 12 0 26 -6 10 -8 20 -5 20 13 3 26 7 33 9 4 1 12
1 17 0 26 -6 64 -7 63 -1 -2 21 4 29 22 26 11 -2 19 -1 19 3 -4 25 2 34 14 23
23 -19 28 0 7 29 l-19 27 24 -1 c13 -1 28 -5 32 -10 4 -4 3 -6 -4 -4 -6 2 -13
-1 -15 -6 -1 -5 5 -10 14 -12 18 -2 17 28 -2 50 -7 10 -4 13 15 12 13 -1 28
-6 32 -10 4 -5 3 -6 -4 -2 -14 8 -28 -10 -14 -18 5 -4 12 -2 16 4 4 6 11 7 18
3 6 -3 1 7 -11 24 -20 28 -20 31 -5 29 10 -2 18 -8 18 -14 0 -7 3 -12 8 -12 4
0 9 0 12 0 3 0 -2 12 -12 28 -9 15 -13 24 -8 20 4 -4 14 -3 21 3 8 7 14 6 20
-2 5 -8 3 -9 -6 -4 -9 6 -11 4 -5 -5 6 -9 4 -11 -5 -5 -9 5 -11 4 -6 -3 5 -9
17 -5 40 13 18 14 36 22 40 18 4 -4 4 1 0 10 -4 10 -2 17 4 15 9 -3 12 1 12
18 0 4 -6 1 -14 -5 -10 -8 -16 -8 -25 2 -9 11 -2 13 34 12 51 -3 76 15 56 39
-8 9 -8 16 -2 20 5 4 12 2 16 -4 4 -6 11 -7 17 -4 7 4 8 2 4 -5 -4 -6 -12 -8
-18 -5 -7 5 -8 2 -3 -5 6 -10 11 -9 23 3 13 13 13 17 1 33 -13 16 -12 17 2 5
14 -11 21 -9 45 11 25 22 27 27 14 43 -8 12 -9 14 -1 8 17 -16 54 -5 47 13 -3
8 -2 11 3 8 5 -3 13 0 16 6 4 5 14 8 22 4 13 -5 14 -3 3 10 -11 13 -11 16 1
13 17 -4 44 -36 53 -64 4 -12 16 -24 27 -27 11 -3 19 -9 18 -14 -3 -22 16 -56
38 -64 13 -5 22 -13 19 -17 -2 -4 -1 -14 5 -22 7 -12 9 -11 10 5 0 16 3 14 11
-7 5 -16 16 -28 24 -28 8 0 19 -12 25 -27 7 -20 12 -24 18 -14 6 9 10 5 15
-13 3 -14 13 -26 21 -26 9 0 20 -12 26 -27 8 -22 12 -24 19 -13 7 11 10 11 10
2 0 -7 7 -15 16 -19 9 -3 35 -23 58 -44 22 -22 56 -46 73 -54 18 -9 37 -25 43
-35 6 -11 17 -20 25 -20 8 0 24 -9 35 -20 11 -11 35 -26 53 -34 19 -7 43 -24
55 -36 13 -14 37 -24 66 -27 25 -3 46 -10 46 -14 0 -5 5 -9 10 -9 6 0 28 -8
48 -18 21 -10 71 -28 112 -41 41 -12 95 -28 120 -36 46 -14 140 -34 195 -40
17 -2 71 -9 120 -15 105 -13 90 -13 225 -6 58 3 123 5 145 5 74 1 310 55 460
106 104 35 325 142 325 158 0 8 4 6 10 -3 6 -10 10 -11 10 -2 0 6 7 12 16 12
8 0 12 5 9 10 -4 6 5 10 20 10 14 0 24 3 22 8 -3 4 1 13 9 20 8 7 14 11 14 8
0 -8 101 63 159 112 31 26 98 88 151 138 306 290 530 507 530 510 0 2 -28 -18
-62 -44 -571 -444 -1356 -523 -2013 -203 -388 189 -696 496 -880 876 -345 710
-220 1574 309 2132 38 40 67 73 65 73 -2 0 -92 -84 -199 -187z m-694 -2923 c0
-12 -4 -16 -9 -11 -5 5 -6 14 -3 20 10 15 12 14 12 -9z m44 4 c0 -8 -19 -13
-24 -6 -3 5 1 9 9 9 8 0 15 -2 15 -3z m-196 -95 c-3 -5 -10 -7 -15 -3 -5 3 -7
10 -3 15 3 5 10 7 15 3 5 -3 7 -10 3 -15z m-90 -78 c-8 -8 -34 -10 -38 -2 -3
4 6 7 19 7 14 0 22 -2 19 -5z m-84 -57 c-3 -5 -8 -8 -12 -6 -5 1 -8 -4 -8 -10
0 -9 -3 -8 -9 2 -6 8 -8 17 -5 21 6 11 40 4 34 -7z m-167 -154 c10 -12 9 -12
-5 -1 -14 10 -18 9 -28 -9 -6 -11 -15 -18 -20 -15 -5 3 -14 -3 -19 -14 -10
-18 -33 -22 -47 -8 -4 3 3 5 15 2 23 -4 27 5 10 22 -8 8 -2 10 21 8 22 -2 30
1 26 10 -10 26 24 30 47 5z"/>
<path d="M23816 16705 c-9 -26 -7 -32 5 -12 6 10 9 21 6 23 -2 3 -7 -2 -11
-11z"/>
<path d="M23806 16623 c-6 -14 -5 -15 5 -6 7 7 10 15 7 18 -3 3 -9 -2 -12 -12z"/>
<path d="M27714 15798 l-29 -33 33 29 c17 17 32 31 32 33 0 8 -8 1 -36 -29z"/>
<path d="M19850 15110 c-9 -6 -10 -10 -3 -10 6 0 15 5 18 10 8 12 4 12 -15 0z"/>
<path d="M23555 15030 c-3 -6 -11 -7 -17 -4 -7 5 -8 2 -4 -5 5 -7 11 -10 14
-7 3 3 11 1 18 -5 7 -6 14 -6 18 -1 3 6 -1 15 -8 21 -10 8 -16 9 -21 1z"/>
<path d="M15544 14932 c4 -3 14 -7 22 -8 9 -1 13 0 10 4 -4 3 -14 7 -22 8 -9
1 -13 0 -10 -4z"/>
<path d="M11160 13185 c-222 -40 -376 -119 -521 -264 -118 -120 -207 -271
-269 -461 -94 -288 -114 -710 -50 -1042 73 -380 261 -662 536 -805 335 -175
852 -142 1144 72 72 53 183 175 229 252 36 60 107 231 99 238 -2 1 -26 14 -54
28 l-51 26 -18 -57 c-28 -89 -88 -201 -148 -273 -202 -243 -592 -354 -947
-269 -383 92 -632 451 -691 995 -15 138 -6 426 17 555 70 399 253 689 521 824
138 69 202 81 423 80 227 -1 294 -14 446 -89 155 -76 283 -217 345 -378 12
-32 25 -56 28 -55 3 2 27 14 54 28 26 13 47 30 47 37 0 22 -59 134 -105 198
-129 182 -355 317 -604 360 -103 18 -329 18 -431 0z"/>
<path d="M19371 13185 c-288 -54 -494 -230 -557 -475 -24 -91 -24 -275 0 -355
25 -86 77 -174 139 -237 92 -93 242 -157 655 -277 402 -118 486 -155 595 -262
99 -99 147 -219 147 -369 -1 -213 -102 -384 -297 -499 -230 -135 -575 -145
-822 -24 -90 44 -216 164 -270 255 -46 79 -90 211 -103 313 l-12 85 -59 0 -60
0 7 -62 c45 -394 263 -659 621 -754 99 -26 417 -27 523 -1 250 60 428 190 521
379 52 104 71 193 71 333 0 188 -44 300 -165 420 -112 113 -259 179 -623 281
-292 82 -407 122 -504 171 -221 113 -312 326 -248 577 27 107 62 166 143 243
118 110 250 161 448 170 253 12 468 -67 607 -223 90 -100 129 -200 158 -396
l5 -38 56 0 56 0 -6 66 c-20 209 -119 404 -265 519 -73 59 -197 120 -292 146
-99 27 -360 35 -469 14z"/>
<path d="M28871 13144 c-11 -14 -23 -46 -27 -71 -8 -56 1 -175 16 -202 27 -52
93 -51 114 2 32 78 26 238 -10 278 -25 27 -68 24 -93 -7z"/>
<path d="M17260 12588 l0 -553 -34 61 c-72 135 -145 211 -266 277 -102 56
-194 78 -355 84 -220 8 -359 -25 -504 -121 -223 -148 -351 -421 -368 -784 -21
-461 145 -823 442 -967 234 -113 576 -106 795 17 84 48 198 168 247 263 l42
80 1 -197 0 -198 60 0 60 0 0 1295 0 1295 -60 0 -60 0 0 -552z m-537 -244
c124 -28 211 -76 302 -168 96 -97 159 -212 202 -371 26 -95 27 -111 27 -325 0
-212 -2 -231 -27 -324 -67 -250 -215 -435 -404 -506 -252 -95 -556 -44 -727
124 -165 160 -246 394 -246 706 0 270 57 468 184 637 95 126 234 209 396 236
64 11 227 6 293 -9z"/>
<path d="M20880 11845 l0 -1295 59 0 60 0 3 658 c4 646 5 658 27 731 51 171
138 284 265 346 108 53 182 69 326 69 247 1 387 -67 464 -227 65 -133 66 -149
66 -902 l0 -675 60 0 61 0 -3 708 c-3 688 -4 709 -25 783 -65 230 -203 359
-432 405 -126 25 -337 16 -446 -20 -144 -46 -250 -125 -326 -240 l-39 -59 0
506 0 507 -60 0 -60 0 0 -1295z"/>
<path d="M13350 12446 c-397 -84 -630 -440 -630 -961 0 -372 117 -666 328
-826 142 -108 287 -152 497 -151 326 0 536 114 671 364 l34 63 0 -192 0 -193
55 0 55 0 0 935 0 935 -55 0 -55 0 0 -202 0 -203 -43 80 c-60 113 -185 238
-287 287 -41 20 -102 44 -135 53 -82 23 -346 29 -435 11z m358 -102 c159 -32
294 -124 386 -262 117 -177 163 -375 153 -662 -6 -182 -34 -307 -96 -435 -94
-197 -226 -309 -421 -362 -87 -23 -280 -23 -370 0 -268 70 -447 290 -505 621
-20 116 -20 356 0 472 51 291 209 516 419 597 126 48 294 60 434 31z"/>
<path d="M23300 12444 c-158 -34 -255 -87 -365 -198 -166 -168 -249 -389 -262
-696 -22 -514 180 -892 538 -1005 146 -46 360 -52 517 -14 62 15 179 69 239
110 249 171 382 546 345 971 -40 466 -260 755 -634 833 -87 19 -291 18 -378
-1z m336 -95 c92 -17 189 -59 262 -114 201 -152 302 -403 302 -756 0 -459
-186 -765 -520 -855 -90 -24 -282 -24 -370 -1 -248 67 -408 243 -488 536 -24
90 -26 110 -26 321 0 212 2 231 27 325 41 156 106 274 202 371 90 91 167 135
288 165 83 20 235 24 323 8z"/>
<path d="M25360 12446 c-229 -51 -370 -159 -482 -370 l-37 -71 -1 208 0 207
-55 0 -55 0 0 -1305 0 -1305 55 0 55 0 0 568 0 567 43 -80 c83 -158 243 -285
414 -330 97 -26 243 -36 356 -24 359 36 598 262 690 652 18 80 21 122 22 322
0 218 -2 236 -28 339 -88 350 -295 563 -604 622 -90 17 -296 17 -373 0z m351
-101 c190 -40 349 -167 439 -350 80 -163 118 -370 106 -585 -20 -367 -159
-625 -400 -739 -111 -53 -170 -66 -311 -65 -193 1 -327 50 -450 165 -190 179
-284 507 -246 862 43 390 236 647 536 712 83 18 239 18 326 0z"/>
<path d="M27417 12444 c-193 -42 -329 -134 -432 -293 -24 -36 -51 -84 -61
-106 l-19 -40 -3 208 -2 207 -55 0 -55 0 0 -1305 0 -1305 55 0 55 0 2 568 c3
548 4 566 20 528 33 -71 109 -175 165 -226 149 -132 378 -195 623 -170 289 30
492 170 615 424 164 336 145 874 -40 1171 -118 189 -275 300 -484 339 -103 20
-292 20 -384 0z m358 -99 c39 -8 108 -33 154 -56 249 -123 391 -417 391 -809
0 -455 -189 -766 -520 -856 -80 -22 -279 -25 -360 -5 -204 49 -371 200 -456
411 -105 257 -105 638 -2 899 85 216 257 372 458 415 86 19 248 19 335 1z"/>
<path d="M30040 12445 c-181 -37 -319 -128 -410 -272 l-30 -47 0 147 0 147
-60 0 -60 0 0 -935 0 -935 59 0 60 0 4 648 c4 718 4 717 72 860 88 185 257
284 510 298 286 16 467 -89 534 -310 34 -111 41 -257 41 -893 l0 -603 55 0 55
0 0 678 c-1 723 -3 771 -51 891 -93 233 -285 343 -596 340 -65 0 -147 -7 -183
-14z"/>
<path d="M31907 12444 c-314 -70 -519 -293 -597 -649 -31 -142 -38 -381 -16
-534 58 -395 251 -643 569 -732 114 -32 352 -33 470 -1 199 54 353 177 446
354 l32 63 -5 -235 c-6 -328 -31 -436 -129 -565 -80 -106 -198 -178 -353 -217
-125 -31 -362 -31 -477 0 -160 44 -264 115 -327 225 -25 45 -36 78 -56 175 -4
19 -10 22 -59 22 l-54 0 5 -37 c13 -95 28 -147 56 -205 88 -177 305 -290 588
-304 318 -17 584 72 748 251 68 74 114 162 144 278 22 81 22 90 25 1085 l4
1002 -56 0 -55 0 0 -202 0 -203 -29 60 c-83 175 -241 303 -446 360 -86 24
-337 30 -428 9z m429 -118 c228 -74 385 -273 450 -570 22 -100 29 -333 14
-453 -41 -324 -199 -567 -428 -653 -141 -54 -333 -62 -474 -21 -191 55 -343
198 -424 401 -104 256 -105 643 -4 893 44 107 89 175 170 257 134 135 263 182
485 176 106 -3 145 -8 211 -30z"/>
<path d="M14870 11485 l0 -935 55 0 55 0 0 648 c0 698 2 728 53 829 32 63 102
140 178 197 67 51 164 86 238 86 25 0 55 3 66 6 19 5 89 93 81 102 -2 2 -54
-1 -116 -8 -229 -22 -374 -96 -463 -235 l-32 -50 -3 148 -3 147 -54 0 -55 0 0
-935z"/>
<path d="M28860 11485 l0 -935 55 0 55 0 0 935 0 935 -55 0 -55 0 0 -935z"/>
</g>
</svg>
